<svg width="217" height="203" viewBox="0 0 217 203" fill="none" xmlns="http://www.w3.org/2000/svg">
<g clip-path="url(#clip0_883_2)">
<path fill-rule="evenodd" clip-rule="evenodd" d="M89 20.7592H155.857C158.934 20.7592 161.429 23.2536 161.429 26.3306V121.045C161.429 124.122 158.934 126.616 155.857 126.616H89V132.188H155.857C162.011 132.188 167 127.199 167 121.045V26.3306C167 20.1766 162.011 15.1877 155.857 15.1877H89V20.7592ZM61.1429 15.1877H66.7143V20.7592H61.1429C58.0659 20.7592 55.5714 23.2536 55.5714 26.3306V121.045C55.5714 124.122 58.0659 126.616 61.1429 126.616H66.7143V132.188H61.1429C54.9888 132.188 50 127.199 50 121.045V26.3306C50 20.1766 54.9888 15.1877 61.1429 15.1877Z" fill="#20211C"/>
<path d="M89 126.616C88.1312 127.886 88.4562 129.62 89.726 130.488C90.9957 131.357 92.7294 131.032 93.5981 129.763L89 126.616ZM161.429 20.7592L89 126.616L93.5981 129.763L166.027 23.9053L161.429 20.7592Z" fill="#20211C"/>
<path d="M157.74 125.233L132.188 69.0194" stroke="#20211C" stroke-width="6.26786" stroke-linecap="round"/>
</g>
<g clip-path="url(#clip1_883_2)">
<path d="M160.64 144.267C162.573 144.267 164.111 144.897 165.255 146.158C166.418 147.4 167 149.114 167 151.301V160.937H161.971V151.981C161.971 150.878 161.685 150.021 161.114 149.41C160.541 148.799 159.773 148.493 158.806 148.493C157.84 148.493 157.07 148.799 156.499 149.41C155.927 150.021 155.641 150.878 155.641 151.981V160.937H150.583V144.444H155.641V146.631C156.154 145.902 156.844 145.331 157.711 144.917C158.579 144.483 159.555 144.267 160.64 144.267Z" fill="#20211C"/>
<path d="M147.914 152.424C147.914 152.897 147.885 153.39 147.826 153.902H136.378C136.457 154.927 136.782 155.715 137.354 156.267C137.946 156.799 138.665 157.065 139.513 157.065C140.775 157.065 141.653 156.533 142.146 155.469H147.529C147.253 156.553 146.75 157.528 146.021 158.395C145.311 159.262 144.414 159.942 143.329 160.434C142.244 160.927 141.032 161.173 139.69 161.173C138.073 161.173 136.634 160.829 135.372 160.139C134.11 159.449 133.124 158.464 132.414 157.183C131.704 155.902 131.349 154.405 131.349 152.69C131.349 150.976 131.694 149.479 132.384 148.198C133.094 146.917 134.08 145.932 135.342 145.242C136.604 144.552 138.054 144.208 139.69 144.208C141.288 144.208 142.708 144.543 143.95 145.212C145.193 145.882 146.159 146.838 146.849 148.08C147.559 149.321 147.914 150.769 147.914 152.424ZM142.737 151.094C142.737 150.227 142.441 149.538 141.85 149.025C141.258 148.513 140.519 148.257 139.631 148.257C138.784 148.257 138.064 148.503 137.472 148.996C136.9 149.488 136.545 150.188 136.407 151.094H142.737Z" fill="#20211C"/>
<path d="M122.102 144.267C124.153 144.267 125.78 144.887 126.983 146.129C128.206 147.37 128.817 149.094 128.817 151.301V160.937H123.788V151.981C123.788 150.917 123.502 150.099 122.931 149.528C122.378 148.937 121.609 148.641 120.623 148.641C119.637 148.641 118.858 148.937 118.286 149.528C117.734 150.099 117.458 150.917 117.458 151.981V160.937H112.43V151.981C112.43 150.917 112.144 150.099 111.572 149.528C111.019 148.937 110.25 148.641 109.264 148.641C108.278 148.641 107.499 148.937 106.927 149.528C106.375 150.099 106.099 150.917 106.099 151.981V160.937H101.041V144.444H106.099V146.513C106.612 145.823 107.282 145.282 108.111 144.887C108.939 144.474 109.876 144.267 110.921 144.267C112.163 144.267 113.268 144.533 114.234 145.065C115.22 145.597 115.989 146.355 116.541 147.341C117.113 146.434 117.892 145.695 118.878 145.124C119.864 144.552 120.939 144.267 122.102 144.267Z" fill="#20211C"/>
<path d="M89.7197 161.173C88.1026 161.173 86.6433 160.829 85.3418 160.139C84.06 159.449 83.0443 158.464 82.2949 157.183C81.5653 155.902 81.2004 154.405 81.2004 152.69C81.2004 150.996 81.5751 149.508 82.3245 148.227C83.0739 146.927 84.0994 145.932 85.4009 145.242C86.7025 144.552 88.1618 144.208 89.7789 144.208C91.3959 144.208 92.8553 144.552 94.1568 145.242C95.4584 145.932 96.4838 146.927 97.2332 148.227C97.9825 149.508 98.3573 150.996 98.3573 152.69C98.3573 154.385 97.9727 155.883 97.2036 157.183C96.4542 158.464 95.4189 159.449 94.0977 160.139C92.7961 160.829 91.3368 161.173 89.7197 161.173ZM89.7197 156.799C90.686 156.799 91.5044 156.444 92.1749 155.735C92.8651 155.025 93.2102 154.011 93.2102 152.69C93.2102 151.37 92.875 150.355 92.2045 149.646C91.5537 148.937 90.7452 148.582 89.7789 148.582C88.7928 148.582 87.9744 148.937 87.3237 149.646C86.6729 150.336 86.3475 151.351 86.3475 152.69C86.3475 154.011 86.6631 155.025 87.2941 155.735C87.9449 156.444 88.7534 156.799 89.7197 156.799Z" fill="#20211C"/>
<path d="M79.6695 140.188L74.2562 160.937H68.133L64.8199 147.282L61.3885 160.937H55.2654L50 140.188H55.4133L58.4009 155.292L62.0985 140.188H67.6597L71.2094 155.292L74.2266 140.188H79.6695Z" fill="#20211C"/>
<path d="M164.038 188C163.097 188 162.325 187.728 161.718 187.185C161.133 186.621 160.84 185.932 160.84 185.118C160.84 184.282 161.133 183.583 161.718 183.019C162.325 182.455 163.097 182.173 164.038 182.173C164.958 182.173 165.71 182.455 166.296 183.019C166.902 183.583 167.205 184.282 167.205 185.118C167.205 185.932 166.902 186.621 166.296 187.185C165.71 187.728 164.958 188 164.038 188Z" fill="#20211C"/>
<path d="M153.48 173.182C154.108 172.221 154.892 171.469 155.832 170.926C156.772 170.363 157.818 170.081 158.967 170.081V175.751H157.493C156.156 175.751 155.153 176.043 154.484 176.628C153.816 177.192 153.48 178.194 153.48 179.635V187.749H148.12V170.268H153.48V173.182Z" fill="#20211C"/>
<path d="M145.291 178.727C145.291 179.228 145.26 179.751 145.197 180.294H133.064C133.147 181.38 133.492 182.215 134.099 182.8C134.725 183.364 135.488 183.646 136.387 183.646C137.725 183.646 138.655 183.082 139.177 181.954H144.884C144.591 183.102 144.058 184.136 143.285 185.055C142.532 185.974 141.581 186.695 140.431 187.217C139.282 187.739 137.996 188 136.575 188C134.862 188 133.335 187.635 131.998 186.904C130.66 186.173 129.615 185.128 128.863 183.771C128.11 182.413 127.734 180.826 127.734 179.009C127.734 177.192 128.1 175.605 128.831 174.247C129.584 172.89 130.629 171.846 131.966 171.115C133.304 170.384 134.841 170.018 136.575 170.018C138.268 170.018 139.773 170.373 141.09 171.083C142.406 171.793 143.431 172.806 144.163 174.122C144.915 175.438 145.291 176.973 145.291 178.727ZM139.805 177.317C139.805 176.398 139.491 175.668 138.864 175.124C138.237 174.581 137.453 174.31 136.513 174.31C135.614 174.31 134.851 174.571 134.224 175.093C133.617 175.615 133.241 176.357 133.095 177.317H139.805Z" fill="#20211C"/>
<path d="M125.972 178.727C125.972 179.228 125.94 179.751 125.878 180.294H113.744C113.828 181.38 114.173 182.215 114.779 182.8C115.406 183.364 116.169 183.646 117.068 183.646C118.405 183.646 119.335 183.082 119.858 181.954H125.564C125.271 183.102 124.738 184.136 123.965 185.055C123.213 185.974 122.262 186.695 121.112 187.217C119.962 187.739 118.677 188 117.256 188C115.542 188 114.016 187.635 112.678 186.904C111.34 186.173 110.295 185.128 109.543 183.771C108.791 182.413 108.414 180.826 108.414 179.009C108.414 177.192 108.78 175.605 109.512 174.247C110.264 172.89 111.309 171.846 112.647 171.115C113.985 170.384 115.521 170.018 117.256 170.018C118.949 170.018 120.454 170.373 121.77 171.083C123.087 171.793 124.111 172.806 124.843 174.122C125.595 175.438 125.972 176.973 125.972 178.727ZM120.485 177.317C120.485 176.398 120.171 175.668 119.544 175.124C118.917 174.581 118.133 174.31 117.193 174.31C116.294 174.31 115.531 174.571 114.904 175.093C114.298 175.615 113.922 176.357 113.776 177.317H120.485Z" fill="#20211C"/>
<path d="M101.431 173.182C102.058 172.221 102.842 171.469 103.783 170.926C104.723 170.363 105.768 170.081 106.918 170.081V175.751H105.444C104.107 175.751 103.103 176.043 102.435 176.628C101.766 177.192 101.431 178.194 101.431 179.635V187.749H96.0701V170.268H101.431V173.182Z" fill="#20211C"/>
<path d="M73.725 178.978C73.725 177.182 74.0594 175.605 74.7283 174.247C75.418 172.89 76.3481 171.846 77.5186 171.115C78.6891 170.384 79.9954 170.018 81.4376 170.018C82.6709 170.018 83.7473 170.269 84.6669 170.77C85.6075 171.271 86.3286 171.929 86.8302 172.744V170.269H92.1914V187.749H86.8302V185.275C86.3076 186.089 85.5761 186.747 84.6356 187.248C83.7159 187.749 82.6394 188 81.4063 188C79.985 188 78.6891 187.635 77.5186 186.904C76.3481 186.152 75.418 185.097 74.7283 183.74C74.0594 182.361 73.725 180.774 73.725 178.978ZM86.8302 179.009C86.8302 177.672 86.454 176.618 85.7016 175.845C84.97 175.072 84.0712 174.686 83.0052 174.686C81.9393 174.686 81.0301 175.072 80.2776 175.845C79.5461 176.597 79.1803 177.641 79.1803 178.978C79.1803 180.314 79.5461 181.38 80.2776 182.173C81.0301 182.946 81.9393 183.332 83.0052 183.332C84.0712 183.332 84.97 182.946 85.7016 182.173C86.454 181.4 86.8302 180.346 86.8302 179.009Z" fill="#20211C"/>
<path d="M50 176.722C50 174.55 50.4703 172.618 51.4108 170.926C52.3514 169.214 53.6578 167.888 55.3299 166.948C57.0229 165.987 58.9354 165.507 61.0673 165.507C63.68 165.507 65.9165 166.196 67.7767 167.574C69.6369 168.953 70.8805 170.832 71.5076 173.213H65.6134C65.1745 172.294 64.5474 171.595 63.7323 171.114C62.938 170.634 62.0288 170.394 61.0046 170.394C59.3534 170.394 58.0157 170.968 56.9915 172.117C55.9674 173.266 55.4553 174.801 55.4553 176.722C55.4553 178.643 55.9674 180.179 56.9915 181.327C58.0157 182.476 59.3534 183.05 61.0046 183.05C62.0288 183.05 62.938 182.81 63.7323 182.33C64.5474 181.849 65.1745 181.15 65.6134 180.231H71.5076C70.8805 182.612 69.6369 184.491 67.7767 185.87C65.9165 187.227 63.68 187.906 61.0673 187.906C58.9354 187.906 57.0229 187.436 55.3299 186.496C53.6578 185.536 52.3514 184.209 51.4108 182.518C50.4703 180.826 50 178.894 50 176.722Z" fill="#20211C"/>
</g>
<defs>
<clipPath id="clip0_883_2">
<rect width="117" height="117" fill="white" transform="translate(50 15.1877)"/>
</clipPath>
<clipPath id="clip1_883_2">
<rect width="117" height="47.6246" fill="white" transform="translate(50 140.188)"/>
</clipPath>
</defs>
</svg>
