<svg width="219" height="219" viewBox="0 0 219 219" fill="none" xmlns="http://www.w3.org/2000/svg">
<rect width="219" height="219" fill="#20211C"/>
<g clip-path="url(#clip0_688_1881)">
<path fill-rule="evenodd" clip-rule="evenodd" d="M84.6667 42.0952H169.81C173.728 42.0952 176.905 45.2719 176.905 49.1905V169.81C176.905 173.728 173.728 176.905 169.81 176.905H84.6667V184H169.81C177.647 184 184 177.647 184 169.81V49.1905C184 41.3533 177.647 35 169.81 35H84.6667V42.0952ZM49.1905 35H56.2857V42.0952H49.1905C45.2719 42.0952 42.0952 45.2719 42.0952 49.1905V169.81C42.0952 173.728 45.2719 176.905 49.1905 176.905H56.2857V184H49.1905C41.3533 184 35 177.647 35 169.81V49.1905C35 41.3533 41.3533 35 49.1905 35Z" fill="#F7F7F7"/>
<path d="M84.6668 176.905C83.5603 178.522 83.9743 180.73 85.5913 181.836C87.2083 182.942 89.4161 182.528 90.5225 180.911L84.6668 176.905ZM176.905 42.0953L84.6668 176.905L90.5225 180.911L182.76 46.1018L176.905 42.0953Z" fill="#F7F7F7"/>
<path d="M172.207 175.143L139.667 103.555" stroke="#F7F7F7" stroke-width="8" stroke-linecap="round"/>
</g>
<defs>
<clipPath id="clip0_688_1881">
<rect width="149" height="149" fill="white" transform="translate(35 35)"/>
</clipPath>
</defs>
</svg>
