<svg width="129" height="122" viewBox="0 0 129 122" fill="none" xmlns="http://www.w3.org/2000/svg">
<rect width="129" height="122" rx="8" fill="black"/>
<g clip-path="url(#clip0_875_15)">
<path d="M116.208 37.7173C118.133 37.7173 119.665 38.3454 120.804 39.6016C121.963 40.8382 122.543 42.5458 122.543 44.7245V53.8226C122.543 54.0987 122.319 54.3226 122.043 54.3226H118.034C117.758 54.3226 117.534 54.0987 117.534 53.8226V45.4017C117.534 44.3025 117.249 43.4487 116.68 42.8403C116.11 42.2318 115.344 41.9275 114.381 41.9275C113.419 41.9275 112.652 42.2318 112.083 42.8403C111.514 43.4487 111.229 44.3025 111.229 45.4017V53.8226C111.229 54.0987 111.005 54.3226 110.729 54.3226H106.69C106.414 54.3226 106.19 54.0987 106.19 53.8226V38.394C106.19 38.1179 106.414 37.894 106.69 37.894H110.729C111.005 37.894 111.229 38.1179 111.229 38.394V38.4917C111.229 38.9801 111.935 39.2369 112.326 38.9442C112.619 38.7253 112.94 38.5323 113.291 38.3651C114.155 37.9332 115.127 37.7173 116.208 37.7173Z" fill="white"/>
<path d="M103.532 45.8433C103.532 46.1764 103.517 46.5192 103.488 46.8719C103.467 47.125 103.252 47.3154 102.998 47.3154H92.5804C92.2892 47.3154 92.0565 47.5643 92.1081 47.8509C92.2456 48.6149 92.5473 49.2215 93.0126 49.6707C93.6023 50.2007 94.3193 50.4657 95.1634 50.4657C96.3031 50.4657 97.1285 50.0301 97.6385 49.159C97.7369 48.9909 97.9108 48.8758 98.1056 48.8758H102.505C102.831 48.8758 103.071 49.1836 102.963 49.4916C102.671 50.3281 102.232 51.0944 101.646 51.7906C100.939 52.6542 100.045 53.3313 98.9647 53.822C97.8842 54.3127 96.6765 54.5581 95.3401 54.5581C93.7295 54.5581 92.2957 54.2146 91.0385 53.5276C89.7814 52.8406 88.7991 51.8592 88.0923 50.5834C87.3848 49.3077 87.0315 47.8159 87.0315 46.1082C87.0315 44.4007 87.3754 42.9089 88.0625 41.6331C88.77 40.3573 89.7515 39.3759 91.0087 38.6889C92.2659 38.0019 93.7099 37.6584 95.3401 37.6584C96.9317 37.6584 98.3459 37.9921 99.5835 38.6595C100.821 39.3268 101.784 40.2788 102.471 41.5153C103.178 42.7519 103.532 44.1946 103.532 45.8433ZM97.875 44.5184C98.1511 44.5184 98.3802 44.2931 98.3395 44.02C98.245 43.3863 97.9624 42.8654 97.4916 42.4575C96.9019 41.9472 96.1653 41.692 95.2812 41.692C94.437 41.692 93.7201 41.9373 93.1304 42.428C92.6869 42.8103 92.374 43.3176 92.1924 43.95C92.1079 44.2442 92.3453 44.5184 92.6514 44.5184H97.875Z" fill="white"/>
<path d="M77.8206 37.7173C79.8636 37.7173 81.4841 38.3356 82.6824 39.5722C83.9003 40.8087 84.5093 42.5262 84.5093 44.7245V53.8226C84.5093 54.0987 84.2854 54.3226 84.0093 54.3226H80.0002C79.724 54.3226 79.5002 54.0987 79.5002 53.8226V45.4017C79.5002 44.3418 79.2153 43.5272 78.6457 42.958C78.0956 42.3692 77.3295 42.0747 76.3474 42.0747C75.3652 42.0747 74.5893 42.3692 74.0196 42.958C73.4696 43.5272 73.1946 44.3418 73.1946 45.4017V53.8226C73.1946 54.0987 72.9707 54.3226 72.6946 54.3226H68.6856C68.4094 54.3226 68.1856 54.0987 68.1856 53.8226V45.4017C68.1856 44.3418 67.9007 43.5272 67.3311 42.958C66.781 42.3692 66.0149 42.0747 65.0328 42.0747C64.0506 42.0747 63.2747 42.3692 62.705 42.958C62.155 43.5272 61.88 44.3418 61.88 45.4017V53.8226C61.88 54.0987 61.6561 54.3226 61.38 54.3226H57.3414C57.0653 54.3226 56.8414 54.0987 56.8414 53.8226V38.394C56.8414 38.1179 57.0653 37.894 57.3414 37.894H61.38C61.6561 37.894 61.88 38.1179 61.88 38.394V38.4443C61.88 38.9259 62.5595 39.1794 62.947 38.8935C63.2327 38.6827 63.545 38.4968 63.8837 38.3356C64.7086 37.9234 65.6417 37.7173 66.6828 37.7173C67.9203 37.7173 69.0203 37.9823 69.9829 38.5123C70.7162 38.908 71.3291 39.4295 71.8216 40.0769C72.051 40.3786 72.5321 40.3914 72.7746 40.1001C73.2742 39.5 73.8856 38.9903 74.6089 38.5712C75.5911 38.0019 76.6617 37.7173 77.8206 37.7173Z" fill="white"/>
<path d="M45.5646 54.5581C43.9538 54.5581 42.5002 54.2146 41.2038 53.5276C39.927 52.8406 38.9153 51.8592 38.1688 50.5834C37.442 49.3077 37.0786 47.8159 37.0786 46.1082C37.0786 44.4203 37.4518 42.9384 38.1983 41.6625C38.9448 40.3671 39.9662 39.3759 41.2627 38.6889C42.5592 38.0019 44.0128 37.6584 45.6235 37.6584C47.2343 37.6584 48.6879 38.0019 49.9843 38.6889C51.2808 39.3759 52.3023 40.3671 53.0487 41.6625C53.7952 42.9384 54.1685 44.4203 54.1685 46.1082C54.1685 47.7963 53.7853 49.288 53.0193 50.5834C52.2728 51.8592 51.2416 52.8406 49.9254 53.5276C48.6289 54.2146 47.1754 54.5581 45.5646 54.5581ZM45.5646 50.2007C46.5271 50.2007 47.3423 49.8474 48.0102 49.1408C48.6977 48.4342 49.0415 47.4233 49.0415 46.1082C49.0415 44.7932 48.7075 43.7823 48.0397 43.0758C47.3914 42.3692 46.5861 42.0158 45.6235 42.0158C44.6414 42.0158 43.8261 42.3692 43.1779 43.0758C42.5297 43.7627 42.2056 44.7736 42.2056 46.1082C42.2056 47.4233 42.5199 48.4342 43.1485 49.1408C43.7967 49.8474 44.6021 50.2007 45.5646 50.2007Z" fill="white"/>
<path d="M34.9064 33.6544C35.2338 33.6544 35.4728 33.9638 35.3902 34.2806L30.259 53.9488C30.2015 54.1689 30.0027 54.3226 29.7751 54.3226H24.4553C24.2246 54.3226 24.0238 54.1647 23.9694 53.9404L21.2394 42.6881C21.1163 42.1807 20.3958 42.1778 20.2686 42.6841L17.4391 53.9444C17.3832 54.1667 17.1834 54.3226 16.9541 54.3226H11.6338C11.405 54.3226 11.2054 54.1673 11.1491 53.9455L6.15809 34.2773C6.0779 33.9613 6.31671 33.6544 6.64273 33.6544H10.9813C11.2201 33.6544 11.4255 33.8231 11.4718 34.0573L13.9295 46.4816C14.0333 47.0068 14.7783 47.0235 14.9056 46.5035L17.9579 34.0355C18.0127 33.8117 18.2132 33.6544 18.4436 33.6544H23.1946C23.4266 33.6544 23.6282 33.814 23.6813 34.04L26.6002 46.4595C26.7231 46.9826 27.4719 46.97 27.5772 46.4431L30.0517 34.0564C30.0984 33.8226 30.3036 33.6544 30.542 33.6544H34.9064Z" fill="white"/>
<path d="M113.41 84C112.526 84 111.799 83.7449 111.229 83.2346C110.68 82.7045 110.404 82.0568 110.404 81.2914C110.404 80.5063 110.68 79.8487 111.229 79.3188C111.799 78.7888 112.526 78.5238 113.41 78.5238C114.274 78.5238 114.981 78.7888 115.532 79.3188C116.101 79.8487 116.386 80.5063 116.386 81.2914C116.386 82.0568 116.101 82.7045 115.532 83.2346C114.981 83.7449 114.274 84 113.41 84Z" fill="white"/>
<path d="M103.488 68.3941C103.488 68.8912 104.199 69.1276 104.564 68.7898C104.91 68.4691 105.288 68.1906 105.698 67.9541C106.443 67.507 107.259 67.2486 108.145 67.1787C108.42 67.1569 108.644 67.3831 108.644 67.6592V71.9882C108.644 72.2643 108.42 72.4882 108.144 72.4882H107.259C106.002 72.4882 105.06 72.763 104.431 73.3126C103.803 73.8425 103.488 74.7847 103.488 76.139V83.2644C103.488 83.5406 103.264 83.7644 102.988 83.7644H98.9496C98.6734 83.7644 98.4496 83.5406 98.4496 83.2644V67.8359C98.4496 67.5597 98.6734 67.3359 98.9496 67.3359H102.988C103.264 67.3359 103.488 67.5597 103.488 67.8359V68.3941Z" fill="white"/>
<path d="M95.7915 75.2852C95.7915 75.6183 95.7766 75.9612 95.7471 76.3139C95.7259 76.567 95.5112 76.7573 95.2572 76.7573H84.8398C84.5486 76.7573 84.3159 77.0062 84.3674 77.2929C84.5049 78.0568 84.8066 78.6634 85.2725 79.1126C85.8615 79.6426 86.5784 79.9076 87.4233 79.9076C88.563 79.9076 89.3878 79.472 89.8976 78.601C89.996 78.4329 90.1699 78.3178 90.3647 78.3178H94.7651C95.0913 78.3178 95.3306 78.6256 95.223 78.9335C94.9307 79.77 94.4915 80.5363 93.9054 81.2324C93.1979 82.0961 92.3043 82.7733 91.2238 83.264C90.1441 83.7547 88.9357 84 87.6 84C85.9895 84 84.5548 83.6565 83.298 82.9696C82.0408 82.2826 81.0586 81.3012 80.3515 80.0254C79.6444 78.7495 79.2908 77.2578 79.2908 75.5502C79.2908 73.8425 79.6345 72.3508 80.322 71.075C81.0292 69.7992 82.0114 68.8178 83.2685 68.1309C84.5258 67.4438 85.9698 67.1003 87.6 67.1003C89.1909 67.1003 90.6051 67.434 91.8426 68.1014C93.0801 68.7687 94.0428 69.7207 94.7307 70.9573C95.4374 72.1938 95.7915 73.6365 95.7915 75.2852ZM90.1349 73.9603C90.411 73.9603 90.6401 73.7351 90.5994 73.4619C90.5049 72.8282 90.2221 72.3074 89.7507 71.8994C89.1618 71.389 88.4253 71.1339 87.5411 71.1339C86.6962 71.1339 85.9792 71.3792 85.3903 71.8699C84.9462 72.2522 84.6336 72.7595 84.4521 73.3919C84.3677 73.6861 84.6051 73.9603 84.9112 73.9603H90.1349Z" fill="white"/>
<path d="M77.6345 75.2852C77.6345 75.6183 77.6198 75.9612 77.5903 76.3139C77.5692 76.567 77.3545 76.7573 77.1005 76.7573H66.6831C66.3918 76.7573 66.1591 77.0062 66.2107 77.2929C66.3482 78.0568 66.6498 78.6634 67.1155 79.1126C67.7048 79.6426 68.4217 79.9076 69.2664 79.9076C70.4061 79.9076 71.2311 79.472 71.7412 78.6009C71.8396 78.4328 72.0135 78.3178 72.2082 78.3178H76.6081C76.9343 78.3178 77.1736 78.6256 77.066 78.9336C76.7737 79.77 76.3346 80.5363 75.7487 81.2324C75.0416 82.0961 74.1478 82.7733 73.0674 83.264C71.987 83.7547 70.779 84 69.4432 84C67.8325 84 66.3985 83.6565 65.1413 82.9696C63.8841 82.2826 62.9019 81.3012 62.1948 80.0254C61.4876 78.7495 61.134 77.2578 61.134 75.5502C61.134 73.8425 61.4778 72.3508 62.1653 71.075C62.8725 69.7992 63.8546 68.8178 65.1118 68.1309C66.369 67.4438 67.8128 67.1003 69.4432 67.1003C71.0344 67.1003 72.4486 67.434 73.6862 68.1014C74.9237 68.7687 75.8862 69.7207 76.5738 70.9573C77.2809 72.1938 77.6345 73.6365 77.6345 75.2852ZM71.9781 73.9603C72.2542 73.9603 72.4832 73.7351 72.4425 73.4619C72.348 72.8282 72.0653 72.3074 71.5941 71.8994C71.0048 71.389 70.2682 71.1339 69.3843 71.1339C68.5396 71.1339 67.8226 71.3792 67.2333 71.8699C66.7896 72.2522 66.4769 72.7595 66.2954 73.3919C66.2109 73.6861 66.4483 73.9603 66.7545 73.9603H71.9781Z" fill="white"/>
<path d="M54.5713 68.3932C54.5713 68.8904 55.2834 69.1268 55.6483 68.789C55.9943 68.4687 56.3719 68.1904 56.7811 67.9541C57.5269 67.507 58.3426 67.2486 59.2282 67.1787C59.5034 67.1569 59.7277 67.3831 59.7277 67.6592V71.9882C59.7277 72.2643 59.5038 72.4882 59.2277 72.4882H58.3428C57.0856 72.4882 56.1427 72.763 55.5142 73.3126C54.8855 73.8425 54.5713 74.7847 54.5713 76.139V83.2644C54.5713 83.5406 54.3474 83.7644 54.0713 83.7644H50.0327C49.7566 83.7644 49.5327 83.5406 49.5327 83.2644V67.8359C49.5327 67.5597 49.7566 67.3359 50.0327 67.3359H54.0713C54.3474 67.3359 54.5713 67.5597 54.5713 67.8359V68.3932Z" fill="white"/>
<path d="M28.5326 75.5208C28.5326 73.8327 28.8469 72.3508 29.4755 71.075C30.1237 69.7992 30.9978 68.8178 32.0979 68.1309C33.1979 67.4438 34.4256 67.1003 35.781 67.1003C36.94 67.1003 37.9516 67.3359 38.816 67.807C39.1268 67.9726 39.4122 68.1565 39.6721 68.3586C40.07 68.6681 40.849 68.4004 40.849 67.8963V67.8359C40.849 67.5597 41.0729 67.3359 41.349 67.3359H45.3875C45.6637 67.3359 45.8875 67.5597 45.8875 67.8359V83.2645C45.8875 83.5406 45.6637 83.7645 45.3875 83.7645H41.349C41.0729 83.7645 40.849 83.5406 40.849 83.2645V83.1439C40.849 82.6446 40.0981 82.3842 39.7069 82.6944C39.4283 82.9152 39.1215 83.1149 38.7865 83.2934C37.9222 83.7645 36.9105 84 35.7516 84C34.4158 84 33.1979 83.6565 32.0979 82.9696C30.9978 82.263 30.1237 81.2718 29.4755 79.9959C28.8469 78.7005 28.5326 77.2088 28.5326 75.5208ZM40.849 75.5502C40.849 74.294 40.4955 73.3028 39.7883 72.5766C39.1008 71.8503 38.2561 71.4872 37.2543 71.4872C36.2525 71.4872 35.398 71.8503 34.6908 72.5766C34.0033 73.2832 33.6595 74.2646 33.6595 75.5208C33.6595 76.7769 34.0033 77.7779 34.6908 78.5238C35.398 79.25 36.2525 79.6132 37.2543 79.6132C38.2561 79.6132 39.1008 79.25 39.7883 78.5238C40.4955 77.7976 40.849 76.8063 40.849 75.5502Z" fill="white"/>
<path d="M6.23572 73.4009C6.23572 71.3596 6.6777 69.544 7.56165 67.9541C8.4456 66.3446 9.67332 65.0983 11.2448 64.215C12.8359 63.3121 14.6333 62.8607 16.6369 62.8607C19.0923 62.8607 21.1942 63.5084 22.9425 64.8039C24.5253 65.9768 25.6332 67.5358 26.266 69.481C26.3674 69.7928 26.1279 70.1034 25.8001 70.1034H21.2246C21.032 70.1034 20.8584 69.9916 20.7652 69.823C20.3636 69.0961 19.8224 68.532 19.1415 68.1308C18.395 67.6794 17.5405 67.4536 16.578 67.4536C15.0261 67.4536 13.769 67.9934 12.8064 69.0729C11.8439 70.1525 11.3627 71.5951 11.3627 73.4009C11.3627 75.2066 11.8439 76.6493 12.8064 77.7289C13.769 78.8084 15.0261 79.3482 16.578 79.3482C17.5405 79.3482 18.395 79.1224 19.1415 78.671C19.8224 78.2698 20.3636 77.7057 20.7652 76.9788C20.8584 76.8102 21.032 76.6984 21.2247 76.6984H25.8001C26.1279 76.6984 26.3674 77.0089 26.266 77.3207C25.6332 79.266 24.5253 80.825 22.9425 81.998C21.1942 83.2737 19.0923 83.9116 16.6369 83.9116C14.6333 83.9116 12.8359 83.4701 11.2448 82.5867C9.67332 81.6839 8.4456 80.4375 7.56165 78.8476C6.6777 77.2578 6.23572 75.4422 6.23572 73.4009Z" fill="white"/>
</g>
<defs>
<clipPath id="clip0_875_15">
<rect width="117" height="51" fill="white" transform="translate(6 33)"/>
</clipPath>
</defs>
</svg>
